<mxfile host="app.diagrams.net" modified="2023-10-23T14:53:51.454Z" agent="Mozilla/5.0 (Windows NT 10.0; Win64; x64) AppleWebKit/537.36 (KHTML, like Gecko) Chrome/118.0.0.0 Safari/537.36" etag="GLUSlQ-JzyAoGAqMKZ2X" version="22.0.6" type="device">
  <diagram name="Page-1" id="nlCo7uOTXH8S5-hPUu7m">
    <mxGraphModel dx="910" dy="499" grid="1" gridSize="10" guides="1" tooltips="1" connect="1" arrows="1" fold="1" page="1" pageScale="1" pageWidth="850" pageHeight="1100" math="0" shadow="0">
      <root>
        <mxCell id="0" />
        <mxCell id="1" parent="0" />
        <mxCell id="1v_EZ-CLWt01RcDr0w3T-1" value="localhost" style="verticalAlign=top;align=left;spacingTop=8;spacingLeft=2;spacingRight=12;shape=cube;size=10;direction=south;fontStyle=4;html=1;whiteSpace=wrap;fillColor=#72C9F7;" parent="1" vertex="1">
          <mxGeometry x="10" y="166.5" width="450" height="343.5" as="geometry" />
        </mxCell>
        <mxCell id="1v_EZ-CLWt01RcDr0w3T-2" value="" style="line;strokeWidth=1;fillColor=#72C9F7;align=left;verticalAlign=middle;spacingTop=-1;spacingLeft=3;spacingRight=3;rotatable=0;labelPosition=right;points=[];portConstraint=eastwest;strokeColor=inherit;" parent="1" vertex="1">
          <mxGeometry x="460" y="311" width="250" height="8" as="geometry" />
        </mxCell>
        <mxCell id="1v_EZ-CLWt01RcDr0w3T-3" value="Database" style="verticalAlign=top;align=left;spacingTop=8;spacingLeft=2;spacingRight=12;shape=cube;size=10;direction=south;fontStyle=4;html=1;whiteSpace=wrap;fillColor=#72C9F7;" parent="1" vertex="1">
          <mxGeometry x="710" y="250" width="160" height="130" as="geometry" />
        </mxCell>
        <mxCell id="1v_EZ-CLWt01RcDr0w3T-4" value="tcp/ip" style="text;html=1;align=center;verticalAlign=middle;resizable=0;points=[];autosize=1;strokeColor=none;fillColor=none;" parent="1" vertex="1">
          <mxGeometry x="515" y="289" width="50" height="30" as="geometry" />
        </mxCell>
        <mxCell id="1v_EZ-CLWt01RcDr0w3T-5" value="«component»&lt;br&gt;&lt;b&gt;Frontend&lt;/b&gt;" style="html=1;dropTarget=0;whiteSpace=wrap;fillColor=#72C9F7;" parent="1" vertex="1">
          <mxGeometry x="60" y="250" width="160" height="80" as="geometry" />
        </mxCell>
        <mxCell id="1v_EZ-CLWt01RcDr0w3T-6" value="" style="shape=module;jettyWidth=8;jettyHeight=4;fillColor=#72C9F7;" parent="1v_EZ-CLWt01RcDr0w3T-5" vertex="1">
          <mxGeometry x="1" width="20" height="20" relative="1" as="geometry">
            <mxPoint x="-27" y="7" as="offset" />
          </mxGeometry>
        </mxCell>
        <mxCell id="-xqnAD-rzFhGNI5JszeZ-1" value="«component»&lt;br&gt;&lt;b&gt;MDRoboISEP&lt;/b&gt;" style="html=1;dropTarget=0;whiteSpace=wrap;fillColor=#72C9F7;" vertex="1" parent="1">
          <mxGeometry x="260" y="250" width="160" height="80" as="geometry" />
        </mxCell>
        <mxCell id="-xqnAD-rzFhGNI5JszeZ-2" value="" style="shape=module;jettyWidth=8;jettyHeight=4;fillColor=#72C9F7;" vertex="1" parent="-xqnAD-rzFhGNI5JszeZ-1">
          <mxGeometry x="1" width="20" height="20" relative="1" as="geometry">
            <mxPoint x="-27" y="7" as="offset" />
          </mxGeometry>
        </mxCell>
        <mxCell id="-xqnAD-rzFhGNI5JszeZ-3" value="«component»&lt;br&gt;&lt;b&gt;Planeamento&lt;/b&gt;" style="html=1;dropTarget=0;whiteSpace=wrap;fillColor=#72C9F7;" vertex="1" parent="1">
          <mxGeometry x="60" y="380" width="160" height="80" as="geometry" />
        </mxCell>
        <mxCell id="-xqnAD-rzFhGNI5JszeZ-4" value="" style="shape=module;jettyWidth=8;jettyHeight=4;fillColor=#72C9F7;" vertex="1" parent="-xqnAD-rzFhGNI5JszeZ-3">
          <mxGeometry x="1" width="20" height="20" relative="1" as="geometry">
            <mxPoint x="-27" y="7" as="offset" />
          </mxGeometry>
        </mxCell>
        <mxCell id="-xqnAD-rzFhGNI5JszeZ-5" value="«component»&lt;br&gt;&lt;b&gt;Visualização3D&lt;/b&gt;" style="html=1;dropTarget=0;whiteSpace=wrap;fillColor=#72C9F7;" vertex="1" parent="1">
          <mxGeometry x="260" y="380" width="160" height="80" as="geometry" />
        </mxCell>
        <mxCell id="-xqnAD-rzFhGNI5JszeZ-6" value="" style="shape=module;jettyWidth=8;jettyHeight=4;fillColor=#72C9F7;" vertex="1" parent="-xqnAD-rzFhGNI5JszeZ-5">
          <mxGeometry x="1" width="20" height="20" relative="1" as="geometry">
            <mxPoint x="-27" y="7" as="offset" />
          </mxGeometry>
        </mxCell>
      </root>
    </mxGraphModel>
  </diagram>
</mxfile>
